<svg width="32" height="32" viewBox="0 0 32 32" fill="none" xmlns="http://www.w3.org/2000/svg">
<path fill-rule="evenodd" clip-rule="evenodd" d="M15.9998 2.66663C8.63604 2.66663 2.6665 8.63616 2.6665 16C2.6665 23.3638 8.63604 29.3333 15.9998 29.3333C23.3636 29.3333 29.3332 23.3638 29.3332 16C29.3332 8.63616 23.3636 2.66663 15.9998 2.66663ZM15.9998 9.33329C16.7362 9.33329 17.3332 9.93025 17.3332 10.6666V16C17.3332 16.7363 16.7362 17.3333 15.9998 17.3333C15.2635 17.3333 14.6665 16.7363 14.6665 16V10.6666C14.6665 9.93025 15.2635 9.33329 15.9998 9.33329ZM14.6665 21.3333C14.6665 20.5969 15.2635 20 15.9998 20H16.0132C16.7496 20 17.3465 20.5969 17.3465 21.3333C17.3465 22.0697 16.7496 22.6666 16.0132 22.6666H15.9998C15.2635 22.6666 14.6665 22.0697 14.6665 21.3333Z" fill="white"/>
</svg>
