<svg width="25" height="24" viewBox="0 0 25 24" fill="none" xmlns="http://www.w3.org/2000/svg">
<path fill-rule="evenodd" clip-rule="evenodd" d="M2.5 7C2.5 4.23858 4.73858 2 7.5 2H17.5C20.2614 2 22.5 4.23858 22.5 7V17C22.5 19.7614 20.2614 22 17.5 22H7.5C4.73858 22 2.5 19.7614 2.5 17V7ZM7.5 4C5.84315 4 4.5 5.34315 4.5 7V17C4.5 18.6569 5.84315 20 7.5 20H17.5C19.1569 20 20.5 18.6569 20.5 17V7C20.5 5.34315 19.1569 4 17.5 4H7.5Z" fill="#020617"/>
<path fill-rule="evenodd" clip-rule="evenodd" d="M12.5 7C12.7652 7 13.0196 7.10536 13.2071 7.29289L17.2071 11.2929C17.5976 11.6834 17.5976 12.3166 17.2071 12.7071C16.8166 13.0976 16.1834 13.0976 15.7929 12.7071L13.5 10.4142V16C13.5 16.5523 13.0523 17 12.5 17C11.9477 17 11.5 16.5523 11.5 16L11.5 10.4142L9.20711 12.7071C8.81658 13.0976 8.18342 13.0976 7.79289 12.7071C7.40237 12.3166 7.40237 11.6834 7.79289 11.2929L11.7929 7.29289C11.9804 7.10536 12.2348 7 12.5 7Z" fill="#020617"/>
</svg>
