<svg width="37" height="36" viewBox="0 0 37 36" fill="none" xmlns="http://www.w3.org/2000/svg">
<path d="M23.2047 12.2277C21.8961 10.9643 20.2315 10.321 18.3776 10.321C15.0887 10.321 12.3049 12.5639 11.3119 15.5775C11.0593 16.3425 10.9158 17.1597 10.9158 18C10.9158 18.8404 11.0593 19.6575 11.3118 20.4225C12.3048 23.4361 15.0887 25.679 18.3776 25.679C20.0765 25.679 21.523 25.2269 22.6537 24.4619C23.9911 23.5578 24.8807 22.2075 25.1735 20.6138H18.3775V15.6819H30.2704C30.4196 16.5164 30.5 17.3857 30.5 18.2898C30.5 22.1728 29.1224 25.4414 26.7347 27.6611C24.6454 29.6083 21.787 30.75 18.3776 30.75C13.4413 30.75 9.17095 27.8929 7.09314 23.7259C6.23791 22.0047 5.75 20.0574 5.75 18C5.75 15.9427 6.23788 13.9954 7.09311 12.2741C9.17092 8.10718 13.4413 5.25 18.3776 5.25C21.7813 5.25 24.6397 6.51341 26.8265 8.5708L23.2047 12.2277Z" fill="#0369A1"/>
</svg>
