<svg width="40" height="40" viewBox="0 0 40 40" fill="none" xmlns="http://www.w3.org/2000/svg">
<path d="M0 4C0 1.79086 1.79086 0 4 0H36C38.2091 0 40 1.79086 40 4V36C40 38.2091 38.2091 40 36 40H4C1.79086 40 0 38.2091 0 36V4Z" fill="#FFE4E6"/>
<path fill-rule="evenodd" clip-rule="evenodd" d="M18.1111 10C17.3747 10 16.7778 10.597 16.7778 11.3333C16.7778 11.7015 16.4793 12 16.1111 12L16 12L13 12C12.4477 12 12 12.4477 12 13C12 13.5523 12.4477 14 13 14L16 14H16.1111L23.8873 14C23.8878 14 23.8884 14 23.8889 14H24L27 14C27.5523 14 28 13.5523 28 13C28 12.4477 27.5523 12 27 12H23.8881C23.5203 11.9996 23.2222 11.7013 23.2222 11.3333C23.2222 10.597 22.6253 10 21.8889 10H18.1111Z" fill="#F43F5E"/>
<path fill-rule="evenodd" clip-rule="evenodd" d="M14 16C13.7204 16 13.4535 16.1171 13.2641 16.3229C13.0748 16.5287 12.9802 16.8044 13.0035 17.083L13.7742 26.3322C13.947 28.4054 15.68 30 17.7604 30H22.2396C24.32 30 26.053 28.4054 26.2258 26.3322L26.9965 17.083C27.0198 16.8044 26.9252 16.5287 26.7359 16.3229C26.5465 16.1171 26.2797 16 26 16H14Z" fill="#F43F5E"/>
</svg>
