<svg width="40" height="40" viewBox="0 0 40 40" fill="none" xmlns="http://www.w3.org/2000/svg">
<path d="M0 4C0 1.79086 1.79086 0 4 0H36C38.2091 0 40 1.79086 40 4V36C40 38.2091 38.2091 40 36 40H4C1.79086 40 0 38.2091 0 36V4Z" fill="#E0F2FE"/>
<path fill-rule="evenodd" clip-rule="evenodd" d="M23.9088 11.8735C24.4681 11.3142 25.2267 11 26.0176 11C26.4093 11 26.7971 11.0771 27.1589 11.227C27.5208 11.3769 27.8496 11.5966 28.1265 11.8735C28.4034 12.1505 28.6231 12.4792 28.773 12.8411C28.9229 13.2029 29 13.5907 29 13.9824C29 14.374 28.9229 14.7619 28.773 15.1237C28.6231 15.4855 28.4034 15.8143 28.1265 16.0913L27.0231 17.1947C26.6326 17.5852 25.9994 17.5852 25.6089 17.1947L22.8054 14.3911C22.4148 14.0006 22.4148 13.3675 22.8054 12.9769L23.9088 11.8735ZM21.3911 15.8054C21.0006 15.4148 20.3675 15.4148 19.9769 15.8054L13.0109 22.7714C12.3701 23.4122 11.9155 24.2151 11.6957 25.0943L11.0299 27.7575C10.9447 28.0982 11.0445 28.4587 11.2929 28.7071C11.5413 28.9555 11.9018 29.0553 12.2426 28.9701L14.9057 28.3043C15.7849 28.0846 16.5878 27.63 17.2286 26.9892L24.1947 20.0231C24.5852 19.6326 24.5852 18.9994 24.1947 18.6089L21.3911 15.8054Z" fill="#0369A1"/>
<path fill-rule="evenodd" clip-rule="evenodd" d="M20 28C20 27.4477 20.4477 27 21 27L28 27C28.5523 27 29 27.4477 29 28C29 28.5523 28.5523 29 28 29L21 29C20.4477 29 20 28.5523 20 28Z" fill="#0369A1"/>
</svg>
