<svg width="40" height="40" viewBox="0 0 40 40" fill="none" xmlns="http://www.w3.org/2000/svg">
<path d="M0 4C0 1.79086 1.79086 0 4 0H36C38.2091 0 40 1.79086 40 4V36C40 38.2091 38.2091 40 36 40H4C1.79086 40 0 38.2091 0 36V4Z" fill="#E2E8F0"/>
<path fill-rule="evenodd" clip-rule="evenodd" d="M15 10C12.2386 10 10 12.2386 10 15V25C10 27.7614 12.2386 30 15 30H25C27.7614 30 30 27.7614 30 25V15C30 12.2386 27.7614 10 25 10H15ZM20 15C19.4477 15 19 15.4477 19 16C19 16.5523 19.4477 17 20 17H20.01C20.5623 17 21.01 16.5523 21.01 16C21.01 15.4477 20.5623 15 20.01 15H20ZM21 20C21 19.4477 20.5523 19 20 19C19.4477 19 19 19.4477 19 20V24C19 24.5523 19.4477 25 20 25C20.5523 25 21 24.5523 21 24V20Z" fill="#94A3B8"/>
</svg>
