<svg width="93" height="39" viewBox="0 0 93 39" fill="none" xmlns="http://www.w3.org/2000/svg">
<path d="M5.61781 23.56H14.8178V28H0.0178127V0.0799994H5.61781V23.56ZM28.2172 28.36C26.0839 28.36 24.1639 27.8933 22.4572 26.96C20.7505 26 19.4039 24.6533 18.4172 22.92C17.4572 21.1867 16.9772 19.1867 16.9772 16.92C16.9772 14.6533 17.4705 12.6533 18.4572 10.92C19.4705 9.18667 20.8439 7.85333 22.5772 6.92C24.3105 5.96 26.2439 5.48 28.3772 5.48C30.5105 5.48 32.4439 5.96 34.1772 6.92C35.9105 7.85333 37.2705 9.18667 38.2572 10.92C39.2705 12.6533 39.7772 14.6533 39.7772 16.92C39.7772 19.1867 39.2572 21.1867 38.2172 22.92C37.2039 24.6533 35.8172 26 34.0572 26.96C32.3239 27.8933 30.3772 28.36 28.2172 28.36ZM28.2172 23.48C29.2305 23.48 30.1772 23.24 31.0572 22.76C31.9639 22.2533 32.6839 21.5067 33.2172 20.52C33.7505 19.5333 34.0172 18.3333 34.0172 16.92C34.0172 14.8133 33.4572 13.2 32.3372 12.08C31.2439 10.9333 29.8972 10.36 28.2972 10.36C26.6972 10.36 25.3505 10.9333 24.2572 12.08C23.1905 13.2 22.6572 14.8133 22.6572 16.92C22.6572 19.0267 23.1772 20.6533 24.2172 21.8C25.2839 22.92 26.6172 23.48 28.2172 23.48ZM52.565 5.48C54.2183 5.48 55.6717 5.81333 56.925 6.48C58.1783 7.12 59.165 7.96 59.885 9V5.84H65.525V28.16C65.525 30.2133 65.1117 32.04 64.285 33.64C63.4583 35.2667 62.2183 36.5467 60.565 37.48C58.9117 38.44 56.9117 38.92 54.565 38.92C51.4183 38.92 48.8317 38.1867 46.805 36.72C44.805 35.2533 43.6717 33.2533 43.405 30.72H48.965C49.2583 31.7333 49.885 32.5333 50.845 33.12C51.8317 33.7333 53.0183 34.04 54.405 34.04C56.0317 34.04 57.3517 33.5467 58.365 32.56C59.3783 31.6 59.885 30.1333 59.885 28.16V24.72C59.165 25.76 58.165 26.6267 56.885 27.32C55.6317 28.0133 54.1917 28.36 52.565 28.36C50.6983 28.36 48.9917 27.88 47.445 26.92C45.8983 25.96 44.6717 24.6133 43.765 22.88C42.885 21.12 42.445 19.1067 42.445 16.84C42.445 14.6 42.885 12.6133 43.765 10.88C44.6717 9.14667 45.885 7.81333 47.405 6.88C48.9517 5.94667 50.6717 5.48 52.565 5.48ZM59.885 16.92C59.885 15.56 59.6183 14.4 59.085 13.44C58.5517 12.4533 57.8317 11.7067 56.925 11.2C56.0183 10.6667 55.045 10.4 54.005 10.4C52.965 10.4 52.005 10.6533 51.125 11.16C50.245 11.6667 49.525 12.4133 48.965 13.4C48.4317 14.36 48.165 15.5067 48.165 16.84C48.165 18.1733 48.4317 19.3467 48.965 20.36C49.525 21.3467 50.245 22.1067 51.125 22.64C52.0317 23.1733 52.9917 23.44 54.005 23.44C55.045 23.44 56.0183 23.1867 56.925 22.68C57.8317 22.1467 58.5517 21.4 59.085 20.44C59.6183 19.4533 59.885 18.28 59.885 16.92ZM80.8344 28.36C78.701 28.36 76.781 27.8933 75.0744 26.96C73.3677 26 72.021 24.6533 71.0344 22.92C70.0744 21.1867 69.5944 19.1867 69.5944 16.92C69.5944 14.6533 70.0877 12.6533 71.0744 10.92C72.0877 9.18667 73.461 7.85333 75.1944 6.92C76.9277 5.96 78.861 5.48 80.9944 5.48C83.1277 5.48 85.061 5.96 86.7944 6.92C88.5277 7.85333 89.8877 9.18667 90.8744 10.92C91.8877 12.6533 92.3944 14.6533 92.3944 16.92C92.3944 19.1867 91.8744 21.1867 90.8344 22.92C89.821 24.6533 88.4344 26 86.6744 26.96C84.941 27.8933 82.9944 28.36 80.8344 28.36ZM80.8344 23.48C81.8477 23.48 82.7944 23.24 83.6744 22.76C84.581 22.2533 85.301 21.5067 85.8344 20.52C86.3677 19.5333 86.6344 18.3333 86.6344 16.92C86.6344 14.8133 86.0744 13.2 84.9544 12.08C83.861 10.9333 82.5144 10.36 80.9144 10.36C79.3144 10.36 77.9677 10.9333 76.8744 12.08C75.8077 13.2 75.2744 14.8133 75.2744 16.92C75.2744 19.0267 75.7944 20.6533 76.8344 21.8C77.901 22.92 79.2344 23.48 80.8344 23.48Z" fill="#0369A1"/>
</svg>
