<svg width="25" height="24" viewBox="0 0 25 24" fill="none" xmlns="http://www.w3.org/2000/svg">
<path fill-rule="evenodd" clip-rule="evenodd" d="M11.5429 2.29289C11.9334 1.90237 12.5666 1.90237 12.9571 2.29289L16.9571 6.29289C17.3476 6.68342 17.3476 7.31658 16.9571 7.70711C16.5666 8.09763 15.9334 8.09763 15.5429 7.70711L12.25 4.41421L8.95711 7.70711C8.56658 8.09763 7.93342 8.09763 7.54289 7.70711C7.15237 7.31658 7.15237 6.68342 7.54289 6.29289L11.5429 2.29289Z" fill="#020617"/>
<path fill-rule="evenodd" clip-rule="evenodd" d="M12.25 2C12.8023 2 13.25 2.44772 13.25 3V15C13.25 15.5523 12.8023 16 12.25 16C11.6977 16 11.25 15.5523 11.25 15V3C11.25 2.44772 11.6977 2 12.25 2Z" fill="#020617"/>
<path fill-rule="evenodd" clip-rule="evenodd" d="M5.25 12C5.80228 12 6.25 12.4477 6.25 13V18C6.25 19.1046 7.14543 20 8.25 20H16.25C17.3546 20 18.25 19.1046 18.25 18V13C18.25 12.4477 18.6977 12 19.25 12C19.8023 12 20.25 12.4477 20.25 13V18C20.25 20.2091 18.4591 22 16.25 22H8.25C6.04086 22 4.25 20.2091 4.25 18V13C4.25 12.4477 4.69772 12 5.25 12Z" fill="#020617"/>
</svg>
