<svg width="29" height="28" viewBox="0 0 29 28" fill="none" xmlns="http://www.w3.org/2000/svg">
<path fill-rule="evenodd" clip-rule="evenodd" d="M15.2912 3.4514C17.8915 3.57919 20.3144 4.65147 22.1651 6.50334C24.1391 8.47858 25.2256 11.1042 25.2246 13.8964C25.2222 19.6585 20.5314 24.3467 14.7691 24.3467C12.6021 24.3467 10.8801 23.6809 9.76825 23.0747L4.22559 24.5279L5.70893 19.1126C4.79396 17.5278 4.3125 15.7301 4.31325 13.8881C4.31557 8.12626 9.00593 3.43848 14.7689 3.43848L15.2912 3.4514ZM10.025 21.1829L10.3424 21.3711C11.6767 22.1625 13.2061 22.5812 14.7655 22.5818H14.769C19.5589 22.5818 23.4573 18.6852 23.4592 13.8958C23.4601 11.575 22.557 9.39265 20.9163 7.75087C19.2755 6.109 17.0936 5.20428 14.7725 5.20352C9.97895 5.20352 6.08049 9.09971 6.07857 13.8887C6.07792 15.53 6.53734 17.1284 7.40725 18.5113L7.61388 18.84L6.73597 22.0452L10.025 21.1829ZM20.0364 16.3815C19.9712 16.2725 19.797 16.2072 19.5358 16.0765C19.2745 15.9458 17.9901 15.3141 17.7506 15.2269C17.5112 15.1398 17.337 15.0963 17.1629 15.3576C16.9887 15.619 16.4881 16.2072 16.3356 16.3815C16.1832 16.5557 16.0308 16.5776 15.7696 16.4469C15.5084 16.3162 14.6666 16.0404 13.6687 15.1508C12.8921 14.4584 12.3678 13.6033 12.2154 13.3419C12.063 13.0806 12.1991 12.9392 12.3299 12.809C12.4474 12.692 12.5912 12.504 12.7218 12.3515C12.8524 12.1991 12.896 12.0901 12.9831 11.9159C13.0701 11.7416 13.0266 11.5892 12.9613 11.4585C12.896 11.3277 12.3735 10.0424 12.1558 9.51959C11.9437 9.01047 11.7283 9.0794 11.568 9.07135C11.4158 9.06381 11.2414 9.06215 11.0673 9.06215C10.8931 9.06215 10.6101 9.12746 10.3706 9.38893C10.1312 9.6503 9.45625 10.2821 9.45625 11.5673C9.45625 12.8526 10.3924 14.0942 10.523 14.2685C10.6537 14.4428 12.3652 17.0801 14.9859 18.2113C15.6092 18.4804 16.0958 18.641 16.4752 18.7613C17.1011 18.9601 17.6706 18.9321 18.1207 18.8648C18.6227 18.7898 19.6664 18.2331 19.8841 17.6232C20.1018 17.0132 20.1018 16.4904 20.0364 16.3815Z" fill="white"/>
</svg>
